<svg width="631" height="212" viewBox="0 0 631 212" fill="none" xmlns="http://www.w3.org/2000/svg">
<path d="M273.311 7.03418C254.701 6.80623 236.072 7.72996 217.62 9.63574L213.932 10.0303L212.674 10.1748C199.498 11.7358 180.917 15.4988 165.665 18.8545C157.741 20.5978 150.627 22.2511 145.493 23.4688C142.925 24.0778 140.851 24.5781 139.417 24.9268C138.7 25.1011 138.143 25.2379 137.764 25.3311C137.574 25.3776 137.429 25.4133 137.331 25.4375C137.282 25.4496 137.244 25.4586 137.219 25.4648C137.206 25.468 137.196 25.471 137.189 25.4727C137.186 25.4734 137.183 25.4742 137.182 25.4746H137.181L76.6122 40.3477L76.2694 40.4414C76.1559 40.4755 76.0432 40.512 75.9315 40.5518H75.9325L75.9315 40.5527C75.9301 40.5532 75.9268 40.5533 75.9227 40.5547C75.9147 40.5575 75.9018 40.5629 75.8837 40.5693C75.8473 40.5822 75.7905 40.6023 75.7147 40.6289C75.5632 40.6821 75.3348 40.7617 75.038 40.8643C74.444 41.0694 73.5758 41.3653 72.496 41.7236C70.3326 42.4416 67.3357 43.4039 64.0009 44.3809C57.1039 46.4013 49.5378 48.2491 44.7665 48.4883C41.6356 48.6452 36.3612 47.9227 31.3261 46.9824C28.9249 46.534 26.7592 46.072 25.1933 45.7217C24.4121 45.5469 23.7845 45.401 23.3563 45.2998C23.1424 45.2492 22.9779 45.2097 22.87 45.1836C22.8165 45.1707 22.777 45.1604 22.7518 45.1543C22.7393 45.1512 22.7296 45.1497 22.7245 45.1484L22.7196 45.1465C20.0608 44.4907 17.2632 45.446 15.5604 47.5908C13.8578 49.7357 13.5628 52.6765 14.8046 55.1172L14.8036 55.1162L14.8075 55.124C14.8129 55.1347 14.8231 55.1543 14.8368 55.1816C14.8643 55.2367 14.9075 55.3245 14.9647 55.4414C15.0798 55.6763 15.25 56.0277 15.4559 56.4688C15.8702 57.3561 16.4192 58.5809 16.9628 59.9375C18.1977 63.0195 18.879 65.5245 18.8798 66.5859C18.8804 67.6836 18.5254 69.2243 17.5653 71.3887C16.6094 73.5436 15.2942 75.8066 13.7538 78.4082C12.3061 80.8532 10.5877 83.7119 9.30849 86.5088C8.05291 89.2539 6.81577 92.7667 7.02333 96.5449C7.66301 108.187 9.22552 114.569 12.8847 123.621C14.8848 128.569 19.2715 135.827 24.1913 142.449C28.8787 148.759 34.8118 155.535 40.5448 159.263L41.0985 159.614C47.3015 163.44 55.5311 165.73 62.0741 167.11C65.9345 167.925 69.4855 168.474 72.1464 168.83C81.5353 189.39 102.153 203.817 126.305 204.199C151.102 204.591 172.644 190.058 182.339 168.907C184.112 168.952 186.406 169.011 189.119 169.08C195.858 169.252 205.181 169.49 215.517 169.756C236.192 170.289 260.914 170.935 277.125 171.388C306.309 172.203 350.078 173.352 386.546 174.296C404.781 174.768 421.193 175.189 433.046 175.492C438.972 175.644 443.758 175.765 447.063 175.85C448.697 175.891 449.969 175.923 450.838 175.945C461.534 193.095 480.464 204.648 502.221 204.992C524.571 205.346 544.336 193.781 555.427 176.191L601.872 172.715C601.996 172.706 602.121 172.694 602.244 172.678L601.35 165.734L602.246 172.677H602.251C602.253 172.676 602.257 172.676 602.26 172.676C602.265 172.675 602.271 172.674 602.277 172.673C602.29 172.671 602.305 172.669 602.321 172.667C602.353 172.663 602.392 172.657 602.436 172.65C602.524 172.637 602.637 172.62 602.769 172.598C603.026 172.554 603.391 172.484 603.806 172.383C604.201 172.287 604.761 172.133 605.368 171.895C605.872 171.697 606.94 171.241 607.971 170.334C609.015 169.415 609.605 168.396 609.862 167.921C610.174 167.345 610.395 166.805 610.539 166.424C610.69 166.024 610.804 165.668 610.879 165.418C610.917 165.289 610.949 165.179 610.973 165.093C610.984 165.05 610.995 165.013 611.003 164.981C611.006 164.97 611.008 164.96 611.011 164.95L615.367 148.343C618.461 146.63 620.78 143.591 621.438 139.982L621.44 139.983L623.812 127.988C623.829 127.904 623.844 127.818 623.857 127.733C624.357 124.6 623.507 121.557 621.68 119.26C622.263 115.512 622.75 112.004 622.825 109.024C622.929 104.919 622.343 99.8873 618.4 96.082H618.399C617.231 94.9549 615.669 93.9887 614.408 93.2656C612.988 92.4509 611.278 91.5729 609.406 90.6689C605.652 88.856 600.95 86.7996 595.975 84.751C586.052 80.6643 574.662 76.45 566.967 74.1133C541.676 66.4349 515.178 63.2102 489.991 59.3818C480.143 57.8849 465.415 56.2142 453.254 54.9258C447.151 54.2792 441.656 53.7246 437.687 53.332C435.703 53.1357 434.099 52.98 432.99 52.873C432.844 52.859 432.707 52.8454 432.578 52.833C432.478 52.7831 432.373 52.7306 432.262 52.6748C431.301 52.1933 429.911 51.499 428.19 50.6426C424.749 48.93 419.978 46.5697 414.66 43.9814C404.074 38.8298 391.145 32.6871 382.243 28.9707C370.911 24.2402 359.031 19.3659 346.598 16.0801C331.516 12.0946 315.986 9.35648 300.35 8.19824C291.361 7.5323 282.339 7.14474 273.311 7.03418Z" fill="black" stroke="url(#paint0_linear_4_2)" stroke-width="14" stroke-linecap="round" stroke-linejoin="round"/>
<circle cx="122.303" cy="144.5" r="52.5" fill="#0E1629"/>
<circle cx="505.303" cy="144.5" r="52.5" fill="#0E1629"/>
<path fill-rule="evenodd" clip-rule="evenodd" d="M271.355 12.0347C280.422 12.1458 289.483 12.5362 298.51 13.2057C313.99 14.3538 329.404 17.0713 344.409 21.0414C356.562 24.2568 368.264 29.0508 379.861 33.8976C397.609 41.3156 431.968 58.672 431.968 58.672C431.968 58.672 471.757 62.4375 491.501 65.4423C517.521 69.402 543.876 72.6129 569.057 80.2673C584.17 84.8618 614.636 97.1272 618.662 101.018C622.327 104.559 621.036 111.303 619.243 122.713C621.221 123.128 622.483 124.937 622.141 127.084L619.723 139.34C619.337 141.762 617.071 143.673 614.641 143.645C614.635 143.645 614.628 143.645 614.621 143.645L609.18 164.424C609.18 164.424 608.806 165.896 608.269 166.369C607.729 166.845 606.215 167.035 606.215 167.035L557.253 170.71C557.756 162.043 559.098 153.21 559.331 144.631C559.795 115.442 536.474 91.4047 507.242 90.9422C478.01 90.4791 453.937 113.766 453.473 142.954C454.01 153.833 452.721 158.563 454.181 170.359C454.181 170.359 335.085 167.332 275.534 165.667C242.429 164.741 174.584 163.026 174.584 163.026C176.048 153.49 175.374 149.918 175.593 143.679C176.057 114.49 152.736 90.4523 123.504 89.9897C94.2719 89.5266 70.1986 112.813 69.7354 142.002C69.6532 147.173 70.3324 152.185 71.6439 156.93C72.1172 159.386 72.9902 162.05 71.8378 163.661C71.8378 163.661 49.7094 161.801 38.2092 154.699C28.6115 148.771 15.724 129.838 12.288 121.328C8.85219 112.818 7.42567 107.072 6.81532 95.9507C6.34767 87.4301 18.9341 75.8925 18.927 65.7259C18.9232 60.4725 13.9908 50.7695 13.9908 50.7695C13.9908 50.7695 30.2893 54.7977 38.5594 54.3826C50.1796 53.7994 72.4055 45.8677 72.4055 45.8677L134.233 30.6672C134.233 30.6672 185.466 17.9469 211.628 15.0528C231.421 12.8634 251.41 11.7896 271.356 12.0342L271.355 12.0347Z" fill="url(#paint1_linear_4_2)" stroke="white" stroke-width="8" stroke-linecap="round" stroke-linejoin="round"/>
<path d="M18.3401 54.7806C21.5696 56.3276 24.9551 57.4378 28.3831 58.181C32.2209 59.0124 36.0872 59.4214 39.9173 59.5843C49.003 59.9695 57.9517 59.1852 66.8206 58.4134C78.012 57.4463 89.1836 56.4242 100.383 55.9612C107.892 55.6506 115.419 55.5781 122.944 55.7689C115.438 55.1898 107.905 54.8726 100.366 54.7952C89.1127 54.6802 77.867 55.1248 66.6448 55.514C57.7547 55.8173 48.8784 56.1449 40.2112 55.3099C36.5709 54.9591 32.9789 54.3985 29.5374 53.4554C26.4961 52.622 23.5583 51.4947 20.8509 50.0198L18.3401 54.7806Z" fill="white" stroke="white"/>
<path d="M284.378 20.8409C263.176 19.3694 241.899 20.3149 220.848 22.7081C212.841 23.6183 204.865 24.7308 196.912 25.9884C204.893 24.919 212.891 23.9956 220.908 23.2765C241.982 21.3864 263.209 20.9458 284.211 22.9083C305.896 24.9328 327.308 29.569 347.793 36.7521C371.254 44.9729 383.045 50.2589 403.917 63.7111L415.702 64.38C394.661 51.6443 372.348 40.9058 348.957 33.3175C328.017 26.5288 306.273 22.3629 284.378 20.8409Z" fill="white" stroke="white"/>
<path d="M460.44 72.5821C463.131 72.7466 465.821 72.9289 468.509 73.1309C488.932 74.6654 509.273 77.2622 529.267 81.42C543.208 84.3193 556.958 88.0754 570.327 92.8321L572.995 93.7969C585.59 98.4336 597.916 103.841 608.859 111.19L609.154 106.053C598.043 99.0717 588.661 94.8827 576.743 90.8516L574.305 90.0411C559.723 85.2516 544.789 81.6568 529.716 79.0626C509.466 75.5777 489 73.6808 468.526 72.8516C465.831 72.7424 463.135 72.6537 460.44 72.5821Z" fill="white" stroke="white"/>
<path d="M377.707 144.857C355.496 144.488 333.372 145.862 311.322 147.485C289.935 149.058 268.577 150.941 247.16 151.586C241.099 151.768 235.02 151.859 228.945 151.785C235.016 152.013 241.1 152.076 247.171 152.046C268.628 151.944 290.05 150.606 311.461 149.576C333.526 148.517 355.613 147.705 377.589 148.634C398.546 149.526 419.474 151.974 439.386 157.715L438.183 152.168C418.029 146.871 400.224 145.303 379.711 144.893L377.707 144.857Z" fill="white" stroke="white"/>
<path d="M67.7395 143.792C67.2608 173.925 91.3365 198.74 121.514 199.218C151.691 199.696 176.543 175.656 177.021 145.523C177.5 115.391 153.424 90.5757 123.247 90.0977C93.0702 89.6197 68.2183 113.66 67.7395 143.792Z" stroke="white" stroke-width="8.09102" stroke-linecap="round" stroke-linejoin="round"/>
<path d="M450.285 143.432C449.797 174.184 474.368 199.509 505.165 199.997C535.963 200.485 561.325 175.95 561.814 145.199C562.303 114.447 537.732 89.1213 506.934 88.6335C476.137 88.1456 450.774 112.68 450.285 143.432Z" stroke="white" stroke-width="8.87429" stroke-linecap="round" stroke-linejoin="round"/>
<path d="M165.681 35.8096C165.471 36.1178 165.228 36.4836 164.983 36.8828C164.636 37.4488 164.283 38.0726 164.002 38.6787C163.718 39.2912 163.52 39.8566 163.458 40.3115L163.445 40.4092C163.169 42.5688 163.509 44.8289 164.819 46.71C166.4 48.9378 168.387 50.6416 170.448 51.9561L170.451 51.959C173.062 53.6524 175.829 54.9245 178.596 55.9668H178.597C182.013 57.2621 185.494 58.2628 188.974 59.1045C197.721 61.2213 206.589 62.4579 215.428 63.3984C226.126 64.5405 236.847 65.2059 247.559 65.6621C271.352 66.6759 295.141 66.6609 318.917 66.5156C328.47 66.4574 338.039 66.3689 347.597 66.3027C338.037 66.0973 328.489 65.9146 318.925 65.7012C295.163 65.1707 271.394 64.5107 247.723 62.8262C237.066 62.0676 226.433 61.1045 215.883 59.6729H215.882C207.157 58.486 198.49 57.0331 190.103 54.7402C186.77 53.8285 183.499 52.7919 180.372 51.498L180.371 51.4971C177.805 50.4283 175.377 48.9285 173.278 47.4453C172.41 46.8313 171.456 45.8686 170.617 44.8965C169.774 43.9201 169.021 42.9037 168.556 42.1631C168.168 41.546 167.391 40.0034 166.717 38.4727C166.378 37.7032 166.059 36.9244 165.826 36.2539C165.773 36.101 165.725 35.9521 165.681 35.8096Z" fill="white" stroke="white"/>
<path d="M506.634 109.285C527.126 109.609 543.484 126.455 543.158 146.916C543.134 148.423 543.01 149.895 542.809 151.349H542.441C542.487 150.693 542.527 150.04 542.538 149.375C542.858 129.253 526.786 112.682 506.634 112.363C486.482 112.043 469.886 128.11 469.567 148.233C469.55 149.285 469.593 150.32 469.664 151.349H469.276C469.027 149.515 468.916 147.64 468.946 145.735C469.272 125.273 486.142 108.96 506.634 109.285Z" fill="white" stroke="white" stroke-width="0.96684" stroke-linecap="round" stroke-linejoin="round"/>
<path d="M122.917 109.618C143.058 109.937 159.135 126.493 158.815 146.604C158.798 147.666 158.732 148.708 158.625 149.744H158.167C158.176 149.502 158.202 149.264 158.206 149.021C158.52 129.243 142.724 112.957 122.917 112.643C103.11 112.33 86.7995 128.121 86.4858 147.898C86.4759 148.519 86.4832 149.132 86.5048 149.744H86.0666C85.9231 148.33 85.8529 146.897 85.876 145.444C86.1956 125.333 102.776 109.299 122.917 109.618Z" fill="white" stroke="white" stroke-width="0.95027" stroke-linecap="round" stroke-linejoin="round"/>
<defs>
<linearGradient id="paint0_linear_4_2" x1="616.803" y1="174" x2="13.8026" y2="45" gradientUnits="userSpaceOnUse">
<stop stop-color="#0E1629"/>
<stop offset="0.217246" stop-color="#0F172A"/>
<stop offset="0.692039" stop-color="#B89650"/>
<stop offset="1" stop-color="#B89650"/>
</linearGradient>
<linearGradient id="paint1_linear_4_2" x1="61.3026" y1="32" x2="522.307" y2="170.986" gradientUnits="userSpaceOnUse">
<stop stop-color="#0F172A"/>
<stop offset="0.252792" stop-color="#0F172A"/>
<stop offset="0.348033" stop-color="#0F172A"/>
<stop offset="0.843623" stop-color="#B89650"/>
<stop offset="1" stop-color="#B89650"/>
</linearGradient>
</defs>
</svg>
